<svg width="12" height="12" viewBox="0 0 12 12" fill="none" xmlns="http://www.w3.org/2000/svg">
<path d="M3.08366 8.18229C2.96829 8.18229 2.8555 8.2165 2.75958 8.2806C2.66365 8.3447 2.58888 8.4358 2.54473 8.54239C2.50058 8.64898 2.48903 8.76627 2.51153 8.87943C2.53404 8.99258 2.5896 9.09652 2.67118 9.1781C2.75276 9.25968 2.8567 9.31524 2.96986 9.33775C3.08301 9.36026 3.2003 9.3487 3.30689 9.30455C3.41348 9.2604 3.50458 9.18564 3.56868 9.08971C3.63278 8.99378 3.66699 8.881 3.66699 8.76562C3.66699 8.61091 3.60553 8.46254 3.49614 8.35314C3.38674 8.24375 3.23837 8.18229 3.08366 8.18229ZM10.1187 5.84896L10.8362 5.13146C11.1639 4.80333 11.348 4.35854 11.348 3.89479C11.348 3.43104 11.1639 2.98625 10.8362 2.65812L9.18532 1.01312C8.8572 0.685407 8.41241 0.501332 7.94866 0.501332C7.48491 0.501332 7.04012 0.685407 6.71199 1.01312L6.00032 1.73062C5.99116 1.27259 5.80275 0.836409 5.47555 0.515752C5.14835 0.195096 4.70845 0.0155334 4.25033 0.015625H1.91699C1.45286 0.015625 1.00774 0.2 0.679555 0.528188C0.351367 0.856377 0.166992 1.3015 0.166992 1.76562V9.93229C0.166992 10.3964 0.351367 10.8415 0.679555 11.1697C1.00774 11.4979 1.45286 11.6823 1.91699 11.6823H10.0837C10.5478 11.6823 10.9929 11.4979 11.3211 11.1697C11.6493 10.8415 11.8337 10.3964 11.8337 9.93229V7.59896C11.8337 7.14083 11.6542 6.70093 11.3335 6.37373C11.0129 6.04653 10.5767 5.85812 10.1187 5.84896ZM4.83366 9.93229C4.83366 10.087 4.7722 10.2354 4.6628 10.3448C4.55341 10.4542 4.40503 10.5156 4.25033 10.5156H1.91699C1.76228 10.5156 1.61391 10.4542 1.50451 10.3448C1.39512 10.2354 1.33366 10.087 1.33366 9.93229V1.76562C1.33366 1.61092 1.39512 1.46254 1.50451 1.35315C1.61391 1.24375 1.76228 1.18229 1.91699 1.18229H4.25033C4.40503 1.18229 4.55341 1.24375 4.6628 1.35315C4.7722 1.46254 4.83366 1.61092 4.83366 1.76562V9.93229ZM6.00032 3.37562L7.54032 1.83562C7.64962 1.72698 7.79747 1.666 7.95157 1.666C8.10568 1.666 8.25353 1.72698 8.36282 1.83562L10.0137 3.51562C10.1223 3.62492 10.1833 3.77277 10.1833 3.92687C10.1833 4.08098 10.1223 4.22883 10.0137 4.33812L8.33366 6.01812L6.00032 8.32229V3.37562ZM10.667 9.93229C10.667 10.087 10.6055 10.2354 10.4961 10.3448C10.3867 10.4542 10.2384 10.5156 10.0837 10.5156H5.89532C5.95517 10.3427 5.9886 10.1618 5.99449 9.97896L8.95782 7.01562H10.0837C10.2384 7.01562 10.3867 7.07708 10.4961 7.18648C10.6055 7.29587 10.667 7.44425 10.667 7.59896V9.93229Z" fill="white"/>
</svg>
